<?xml version="1.0" standalone="no"?>
<!DOCTYPE svg PUBLIC "-//W3C//DTD SVG 20010904//EN"
 "http://www.w3.org/TR/2001/REC-SVG-20010904/DTD/svg10.dtd">
<svg version="1.0" xmlns="http://www.w3.org/2000/svg"
 width="400.000000pt" height="400.000000pt" viewBox="0 0 400.000000 400.000000"
 preserveAspectRatio="xMidYMid meet">
<metadata>
Created by potrace 1.13, written by Peter Selinger 2001-2015
</metadata>
<g transform="translate(0.000000,400.000000) scale(0.100000,-0.100000)"
fill="#000000" stroke="none">
<path d="M1080 2222 c-66 -34 -110 -85 -137 -162 -30 -83 2 -182 80 -253 44
-40 90 -57 157 -57 93 0 154 34 212 118 30 44 33 53 33 127 -1 69 -4 86 -27
121 -31 49 -78 90 -125 109 -49 20 -149 19 -193 -3z"/>
<path d="M1885 2215 c-56 -32 -89 -66 -113 -119 -45 -94 -21 -209 59 -280 51
-47 100 -66 164 -66 134 0 245 111 245 245 0 93 -51 173 -143 224 -54 30 -157
28 -212 -4z"/>
<path d="M2700 2218 c-50 -28 -99 -77 -118 -118 -23 -48 -23 -163 0 -211 22
-45 85 -103 134 -124 46 -19 141 -19 185 -1 85 35 159 143 159 231 0 88 -74
196 -159 231 -50 21 -158 17 -201 -8z"/>
</g>
</svg>
