<?xml version="1.0" standalone="no"?>
<!DOCTYPE svg PUBLIC "-//W3C//DTD SVG 20010904//EN"
 "http://www.w3.org/TR/2001/REC-SVG-20010904/DTD/svg10.dtd">
<svg version="1.0" xmlns="http://www.w3.org/2000/svg"
 width="1430.000000pt" height="1430.000000pt" viewBox="0 0 1430.000000 1430.000000"
 preserveAspectRatio="xMidYMid meet">
<metadata>
Created by potrace 1.13, written by Peter Selinger 2001-2015
</metadata>
<g transform="translate(0.000000,1430.000000) scale(0.100000,-0.100000)"
fill="#000000" stroke="none">
<path d="M3218 12414 c-356 -64 -653 -344 -743 -698 l-25 -99 2 -4616 c3
-4459 4 -4618 21 -4666 53 -142 133 -258 231 -332 267 -202 608 -201 859 1 34
27 289 244 567 481 1384 1180 2300 1962 2635 2249 203 174 374 316 380 316 5
0 208 -170 451 -378 438 -374 761 -650 2324 -1983 448 -382 837 -710 863 -728
95 -65 248 -111 367 -111 201 0 424 106 544 260 50 63 91 139 123 225 17 48
18 214 21 4650 2 3498 0 4617 -9 4670 -58 348 -335 646 -694 747 l-80 23
-3880 2 c-3276 1 -3892 -1 -3957 -13z m7807 -563 c109 -38 195 -123 237 -233
17 -47 18 -202 20 -4586 2 -4405 2 -4538 -16 -4565 -34 -51 -116 -74 -168 -46
-12 6 -240 199 -507 428 -267 229 -792 678 -1166 997 -374 319 -1006 858
-1404 1198 -399 340 -743 627 -765 637 -56 25 -167 25 -223 -1 -23 -10 -196
-151 -385 -312 -189 -162 -541 -463 -783 -669 -816 -695 -1267 -1080 -1955
-1669 -377 -322 -696 -594 -710 -603 -51 -35 -139 -15 -176 40 -18 27 -18 161
-16 4565 2 4400 2 4538 20 4586 54 140 172 234 317 250 33 4 1762 6 3843 5
3712 -3 3783 -3 3837 -22z"/>
</g>
</svg>
